<svg xmlns="http://www.w3.org/2000/svg" xmlns:xlink="http://www.w3.org/1999/xlink" width="500" zoomAndPan="magnify" viewBox="0 0 375 374.999991" height="500" preserveAspectRatio="xMidYMid meet" version="1.2"><defs><clipPath id="29b0b783a7"><path d="M 90.773438 43 L 284 43 L 284 329 L 90.773438 329 Z M 90.773438 43 "/></clipPath><clipPath id="0d3655dfb0"><path d="M 130.011719 84.96875 L 219.15625 84.96875 L 219.15625 293.359375 L 130.011719 293.359375 Z M 130.011719 84.96875 "/></clipPath></defs><g id="daa64952dd"><g clip-rule="nonzero" clip-path="url(#29b0b783a7)"><path style=" stroke:none;fill-rule:nonzero;fill:#00bf63;fill-opacity:1;" d="M 180.464844 51.933594 C 132.996094 64.378906 101.765625 78.722656 92.792969 111.765625 C 91.425781 116.8125 90.757812 121.558594 90.757812 126.285156 C 90.757812 136.257812 93.761719 144.277344 96.671875 152.054688 C 99.347656 159.207031 102.28125 167.195312 103.273438 178.246094 L 103.515625 186.515625 C 103.558594 186.515625 99.898438 211.496094 96.640625 220.191406 C 93.742188 227.925781 90.742188 235.929688 90.742188 245.855469 C 90.742188 250.597656 91.410156 255.355469 92.78125 260.394531 C 101.761719 293.464844 132.984375 307.800781 180.460938 320.222656 C 235.453125 334.625 272.3125 330.640625 281.609375 309.300781 C 283.128906 305.828125 283.898438 302.167969 283.898438 298.433594 C 283.898438 279.460938 263.953125 262.007812 249.371094 249.261719 L 245.351562 245.792969 C 233.195312 235.402344 226.230469 213.632812 226.230469 186.082031 C 226.230469 156.117188 232.128906 137.703125 245.371094 126.378906 L 249.398438 122.90625 C 263.960938 110.171875 283.890625 92.738281 283.890625 73.746094 C 283.890625 69.992188 283.121094 66.34375 281.609375 62.894531 C 272.316406 41.550781 235.457031 37.5625 180.464844 51.933594 Z M 184.179688 231.429688 L 184.179688 245.671875 L 197.980469 245.671875 C 203.039062 245.671875 207.304688 250.125 207.304688 255.394531 C 207.304688 260.675781 203.039062 265.128906 197.980469 265.128906 L 184.179688 265.128906 L 184.179688 278.511719 C 184.179688 283.558594 179.722656 287.832031 174.453125 287.832031 C 169.171875 287.832031 164.71875 283.5625 164.71875 278.511719 L 164.71875 265.128906 L 150.90625 265.128906 C 145.851562 265.128906 141.578125 260.671875 141.578125 255.394531 C 141.578125 250.125 145.851562 245.671875 150.90625 245.671875 L 164.71875 245.671875 L 164.71875 231.429688 C 164.71875 226.382812 169.171875 222.105469 174.453125 222.105469 C 179.726562 222.101562 184.179688 226.378906 184.179688 231.429688 Z M 201.113281 130.257812 C 201.113281 138.148438 194.703125 144.5625 186.816406 144.5625 C 178.929688 144.5625 172.523438 138.136719 172.523438 130.257812 C 172.523438 122.382812 178.9375 115.976562 186.816406 115.976562 C 194.703125 115.976562 201.113281 122.386719 201.113281 130.257812 Z M 174.441406 103.589844 C 174.441406 111.476562 168.023438 117.878906 160.144531 117.878906 C 152.265625 117.878906 145.851562 111.46875 145.851562 103.589844 C 145.851562 95.714844 152.265625 89.296875 160.144531 89.289062 C 168.027344 89.289062 174.441406 95.714844 174.441406 103.589844 Z M 174.441406 103.589844 "/></g><g clip-rule="nonzero" clip-path="url(#0d3655dfb0)"><path style=" stroke:none;fill-rule:nonzero;fill:#00bf63;fill-opacity:1;" d="M 130.011719 84.96875 L 219.15625 84.96875 L 219.15625 293.203125 L 130.011719 293.203125 Z M 130.011719 84.96875 "/></g><path style="fill:none;stroke-width:27;stroke-linecap:round;stroke-linejoin:miter;stroke:#ffde59;stroke-opacity:1;stroke-miterlimit:4;" d="M 13.498361 13.499029 L 181.96002 13.496851 " transform="matrix(0.466059,-0.585392,0.585392,0.466059,132.138776,196.778469)"/><path style="fill:none;stroke-width:27;stroke-linecap:round;stroke-linejoin:miter;stroke:#ffde59;stroke-opacity:1;stroke-miterlimit:4;" d="M 13.500524 13.500769 L 182.02407 13.502987 " transform="matrix(-0.460811,-0.591737,0.591737,-0.460811,236.298695,302.694443)"/><path style="fill:none;stroke-width:27;stroke-linecap:round;stroke-linejoin:miter;stroke:#ffde59;stroke-opacity:1;stroke-miterlimit:4;" d="M 13.499476 13.501076 L 264.557432 13.501076 " transform="matrix(0.00000000130878,-0.749874,0.749874,0.00000000130878,136.075119,296.939306)"/></g></svg>