<?xml version="1.0" encoding="UTF-8" standalone="no" ?>
<!DOCTYPE svg PUBLIC "-//W3C//DTD SVG 1.1//EN" "http://www.w3.org/Graphics/SVG/1.1/DTD/svg11.dtd">
<svg xmlns="http://www.w3.org/2000/svg" xmlns:xlink="http://www.w3.org/1999/xlink" version="1.1" width="1080" height="1080" viewBox="0 0 1080 1080" xml:space="preserve">
<desc>Created with Fabric.js 5.2.4</desc>
<defs>
</defs>
<g transform="matrix(1 0 0 1 540 540)" id="5ef76eba-f58b-41e0-9716-0d13f1a836a6"  >
<rect style="stroke: none; stroke-width: 1; stroke-dasharray: none; stroke-linecap: butt; stroke-dashoffset: 0; stroke-linejoin: miter; stroke-miterlimit: 4; fill: rgb(255,255,255); fill-rule: nonzero; opacity: 1; visibility: hidden;" vector-effect="non-scaling-stroke"  x="-540" y="-540" rx="0" ry="0" width="1080" height="1080" />
</g>
<g transform="matrix(1 0 0 1 540 540)" id="9c0e2a33-36e1-4e83-bd52-4fe594fd5c92"  >
</g>
<g transform="matrix(1 0 0 1 540 540)" id="14bdf379-7842-49b3-b33e-9d64e38478d6"  >
<path style="stroke: rgb(0,0,0); stroke-width: 0; stroke-dasharray: none; stroke-linecap: butt; stroke-dashoffset: 0; stroke-linejoin: miter; stroke-miterlimit: 4; fill: rgb(101,101,101); fill-rule: nonzero; opacity: 1;" vector-effect="non-scaling-stroke"  transform=" translate(-50, -50)" d="M 19.11 13.441 L 66.53 13.441 L 66.53 28.966 L 80.888 28.966 L 80.888 86.559 L 19.11 86.559 L 19.11 13.441 z M 69.711 13.494 L 80.254 26 L 69.711 26 L 69.711 13.494 z" stroke-linecap="round" />
</g>
<g transform="matrix(13.52 0 0 13.52 540 522.77)" id="6a0779fb-0ab9-4956-a863-83513858ecd6"  >
<path style="stroke: rgb(0,0,0); stroke-width: 0; stroke-dasharray: none; stroke-linecap: butt; stroke-dashoffset: 0; stroke-linejoin: miter; stroke-miterlimit: 4; fill: rgb(255,255,255); fill-rule: nonzero; opacity: 1;" vector-effect="non-scaling-stroke"  transform=" translate(-50, -50)" d="M 19.11 13.441 L 66.53 13.441 L 66.53 28.966 L 80.888 28.966 L 80.888 86.559 L 19.11 86.559 L 19.11 13.441 z M 69.711 13.494 L 80.254 26 L 69.711 26 L 69.711 13.494 z" stroke-linecap="round" />
</g>
</svg>